<?xml version="1.0" encoding="UTF-8" standalone="no"?>
<svg xmlns:svg="http://www.w3.org/2000/svg"
xmlns="http://www.w3.org/2000/svg"
   width="600" height="500"
   viewBox="0 0 500 650">
   <g>
      <path
         d="M 303.33334,651.20672 C 229.74806,648.03402 159.4177,641.10744 95.640434,630.75178 78.008547,627.88885 68.760217,625.74306 64.31173,623.48293 51.07809,616.75934 41.961991,603.8145 40.50098,589.6717 c -1.077885,-10.43408 13.646399,-82.24203 19.344165,-94.33835 7.854591,-16.67525 22.473018,-31.73667 38.801893,-39.97773 3.310802,-1.67095 24.019632,-9.95404 46.019632,-18.40689 71.72486,-27.55813 99.97279,-38.5206 101.54853,-39.409 2.04172,-1.15112 10.0188,-12.82438 13.71566,-20.07085 4.45026,-8.72321 6.68703,-21.78332 6.71267,-39.19395 l 0.0232,-15.72507 -6.89868,-8.27493 c -7.81635,-9.3756 -14.77989,-23.44163 -16.96824,-34.27492 -2.91735,-14.44216 -6.93499,-50.33832 -7.72276,-69 l -0.80206,-19 h -5.13749 -5.13749 v -26.05622 c 0,-18.52297 0.60909,-29.02748 2.10677,-36.33333 9.02516,-44.025924 42.42622,-77.856913 84.5599,-85.648318 11.13292,-2.058711 48.75413,-2.102763 60,-0.07025 31.59904,5.711016 56.54345,23.031634 64.76707,44.97222 1.33361,3.558078 3.157,6.921295 4.05199,7.473819 3.74682,2.313139 11.1068,14.345929 14.47312,23.662079 2.56778,7.10625 3.82258,13.66588 4.33622,22.6683 0.6774,11.87235 0.38407,13.88291 -4.66876,32.00001 -4.67974,16.77938 -5.48756,21.70818 -6.11856,37.33169 -0.9505,23.53449 -6.78682,68.1538 -10.21989,78.1322 -2.95308,8.58328 -6.9158,15.19216 -14.82195,24.71951 l -5.13257,6.18504 0.0232,16.48162 c 0.0133,9.17561 0.87537,20.50359 1.94566,25.55477 1.68806,7.96661 9.4893,24.9937 14.66846,32.01557 1.53117,2.07595 29.75124,13.23039 137.99319,54.54404 26.57103,10.1416 45.05296,28.21492 54.40011,53.1974 1.51024,4.03651 6.09381,23.80103 10.18571,43.92115 6.73872,33.13478 7.3189,37.31888 6.15682,44.40132 -3.47109,21.15516 -16.98779,33.98446 -40.70643,38.6363 -41.32741,8.10537 -103.79249,15.64543 -162,19.55476 -20.88018,1.40236 -116.97049,2.71225 -136.66667,1.86303 z m 54.7047,-185.77412 c 16.51353,-5.80404 36.05277,-22.84228 51.01369,-44.48401 3.82155,-5.52807 6.94828,-10.47138 6.94828,-10.98512 0,-0.51374 -2.65825,-5.21568 -5.90722,-10.44876 -3.24898,-5.23308 -7.15042,-12.69056 -8.66987,-16.57216 -3.24773,-8.29672 -6.75624,-27.22542 -6.75624,-36.45052 0,-3.57062 -0.36177,-6.49202 -0.80395,-6.49202 -0.44217,0 -5.05921,3.6715 -10.26008,8.15887 -14.79088,12.76176 -17.87538,13.78611 -41.60264,13.81596 -18.81385,0.0237 -20.44117,-0.18172 -27.43877,-3.4634 -4.09132,-1.91871 -11.36296,-6.81756 -16.1592,-10.88633 l -8.72043,-7.39777 -0.91732,11.30561 c -1.68496,20.76616 -7.32788,37.22241 -17.59524,51.31237 -2.47631,3.39824 -4.50237,6.79629 -4.50237,7.5512 0,2.18655 14.81897,21.57675 23.94985,31.33768 9.53097,10.18864 23.45665,19.95811 33.70712,23.647 9.4314,3.39412 24.13995,3.41655 33.71439,0.0513 z m 2.63592,-128.45106 c 5.04183,-2.6402 41.38795,-32.91746 46.42808,-38.67581 5.04413,-5.76291 9.53595,-14.83987 11.36808,-22.97239 3.14307,-13.95153 7.09393,-50.19971 7.77497,-71.33333 l 0.70895,-22 -10.21833,-15.29688 c -5.62008,-8.41328 -10.42807,-15.5066 -10.6844,-15.76294 -0.25632,-0.25633 -3.97274,1.9223 -8.25867,4.8414 -20.16769,13.73598 -53.72016,22.75242 -109.79263,29.50423 -12.83333,1.54529 -25.297,3.11789 -27.69703,3.49468 l -4.36369,0.68507 0.66647,8.26721 c 0.36654,4.54697 1.01866,13.66723 1.44914,20.26723 1.2797,19.61998 6.89722,59.83992 9.09128,65.09104 4.17664,9.99612 10.7501,17.20104 31.80988,34.86567 15.23319,12.77734 23.39831,18.704 27.66171,20.07824 7.85097,2.53062 28.42738,1.89417 34.05619,-1.05342 z" />
   </g>
</svg>